<?xml version="1.0" encoding="utf-8"?>
<!-- Generator: Adobe Illustrator 16.0.0, SVG Export Plug-In . SVG Version: 6.00 Build 0)  -->
<!DOCTYPE svg PUBLIC "-//W3C//DTD SVG 1.1//EN" "http://www.w3.org/Graphics/SVG/1.1/DTD/svg11.dtd">
<svg version="1.1" id="Layer1" xmlns="http://www.w3.org/2000/svg" xmlns:xlink="http://www.w3.org/1999/xlink" x="0px" y="0px"
	 width="43.991px" height="24.63px" viewBox="-0.534 -0.001 43.991 24.63" enable-background="new -0.534 -0.001 43.991 24.63"
	 xml:space="preserve">
<g>
	<g>
		<g>
			<path fill="#77DD77" stroke="#77DD77" stroke-miterlimit="10" d="M41.624,20.772c-0.964-0.711-1.773-1.604-2.2-2.662
				c-0.678-1.002-1.148-2.142-1.542-3.302c-0.272-0.803-0.55-1.612-0.842-2.421c-0.094-0.189-0.185-0.382-0.27-0.577
				c-1.092-2.515-2.47-4.81-4.297-6.789c-3.036-2.089-6.189-3.381-9.359-4.054c-6.402-1.354-12.622,0.345-18.589,3.61
				C4.143,4.809,3.766,5.05,3.392,5.294C3.367,5.316,3.34,5.336,3.316,5.359C3.268,5.408,3.213,5.447,3.158,5.486
				C2.757,5.853,2.357,6.221,1.974,6.607C1.492,7.092,1.077,7.646,0.609,8.142C0.608,8.144,0.608,8.145,0.608,8.146
				c2.556,0.035,4.664,1.938,6.459,3.564c0.569,0.517,1.055,1.063,1.485,1.637c1.463,1.563,2.651,3.374,4.265,4.802
				c0.123,0.109,0.214,0.227,0.28,0.346c0.632,0.522,1.264,1.031,1.897,1.514c0.042,0.021,0.086,0.035,0.126,0.061
				c0.152,0.093,0.302,0.188,0.451,0.288c0.023,0.009,0.046,0.019,0.069,0.026c0.142,0.054,0.271,0.126,0.388,0.213
				c0.244,0.12,0.489,0.239,0.734,0.358c0.364,0.135,0.728,0.27,1.089,0.409c0.076,0.029,0.148,0.063,0.218,0.103
				c4.225,1.539,8.398,2.62,12.677,2.66c3.555,0.033,7.175-0.181,10.576-1.809c0.417-0.2,0.837-0.423,1.256-0.667
				C42.244,21.382,41.923,21.087,41.624,20.772z"/>
		</g>
	</g>
	<g>
		<g>
			<path fill="#FFFFFF" d="M9.974,8.299c7.348-1.886,18.689,5.25,23.54,10.425c0.663,0.707,1.721-0.356,1.061-1.062
				C29.345,12.084,17.569,4.801,9.576,6.853C8.639,7.093,9.037,8.54,9.974,8.299L9.974,8.299z"/>
		</g>
	</g>
	<g>
		<g>
			<path fill="#FFFFFF" d="M18.498,3.684c1.979,1.072,3.105,3.201,3.167,5.42c0.027,0.965,1.527,0.968,1.5,0
				c-0.077-2.73-1.468-5.392-3.911-6.715C18.404,1.927,17.647,3.223,18.498,3.684L18.498,3.684z"/>
		</g>
	</g>
	<g>
		<g>
			<path fill="#FFFFFF" d="M27.33,5.931c1.792,2.342,2.857,5.033,2.452,8.019c-0.128,0.945,1.317,1.354,1.446,0.398
				c0.461-3.396-0.535-6.472-2.604-9.175C28.045,4.417,26.741,5.163,27.33,5.931L27.33,5.931z"/>
		</g>
	</g>
	<g>
		<g>
			<path fill="#FFFFFF" d="M14.632,15.377c3.198,1.03,6.449,1.512,9.806,1.543c0.968,0.01,0.967-1.49,0-1.5
				c-3.228-0.03-6.334-0.5-9.407-1.489C14.107,13.634,13.715,15.083,14.632,15.377L14.632,15.377z"/>
		</g>
	</g>
</g>
</svg>
